<svg width="88" height="20" viewBox="0 0 88 20" fill="none" xmlns="http://www.w3.org/2000/svg">
<g clip-path="url(#clip0)">
<path d="M6.11436 19.2252C4.92732 18.7329 3.8474 18.0156 2.93467 17.113C2.02136 16.2181 1.29281 15.1536 0.79001 13.9795C0.268353 12.7672 0.000528239 11.4614 0.00282223 10.1423H5.0037C5.0032 10.8021 5.1376 11.4552 5.39867 12.0616C5.65072 12.6476 6.01397 13.1797 6.46842 13.6284C6.92527 14.0794 7.46539 14.438 8.05895 14.6844C8.67509 14.9424 9.33696 15.0742 10.0053 15.0718C10.674 15.0735 11.3363 14.9416 11.953 14.6839C12.5458 14.4375 13.0855 14.0793 13.5421 13.6289C13.9981 13.1802 14.3628 12.648 14.6167 12.0616C14.8749 11.4545 15.0072 10.8017 15.0058 10.1423V-0.000350952H20.0063V10.2504C19.9931 11.5341 19.7265 12.8027 19.2215 13.9837C18.7184 15.1573 17.9902 16.2218 17.0779 17.1173C16.1642 18.0189 15.0842 18.736 13.8975 19.2291C12.6645 19.7419 11.341 20.0038 10.0049 19.9995C8.66921 20.0027 7.34646 19.7394 6.11436 19.2252Z" fill="black"/>
<path d="M32.5941 19.9998C31.2793 20.0031 29.9769 19.7458 28.7628 19.2428C27.5487 18.7398 26.4469 18.0012 25.5218 17.0699C24.5901 16.1421 23.8517 15.0399 23.3491 13.8265C22.8465 12.6131 22.5896 11.3126 22.5932 9.9998C22.5894 8.687 22.8463 7.38646 23.3489 6.17304C23.8516 4.95962 24.5901 3.85734 25.5219 2.92966C26.4472 1.99835 27.5489 1.2597 28.7631 0.756718C29.9774 0.253738 31.2799 -0.00355727 32.5948 -0.000204155C33.9094 -0.00352311 35.2116 0.25382 36.4255 0.756803C37.6395 1.25979 38.7409 1.9984 39.6659 2.92966C40.5981 3.85711 41.3369 4.95933 41.8397 6.17278C42.3426 7.38624 42.5996 8.6869 42.5957 9.9998C42.5996 11.3127 42.3428 12.6133 41.8401 13.8267C41.3374 15.0402 40.5985 16.1424 39.6664 17.0699C38.7412 18.0011 37.6395 18.7397 36.4253 19.2427C35.2112 19.7457 33.9089 20.003 32.5941 19.9998ZM32.5941 5.33311C31.3547 5.33595 30.167 5.82901 29.292 6.70398C28.417 7.57896 27.9259 8.76433 27.927 9.9998C27.9262 11.2352 28.4172 12.4204 29.2922 13.2954C30.1672 14.1703 31.3547 14.6634 32.5941 14.6665C33.8335 14.6635 35.0211 14.1705 35.8961 13.2955C36.7712 12.4206 37.2621 11.2353 37.2613 9.9998C37.262 8.76437 36.771 7.57915 35.896 6.70424C35.0209 5.82933 33.8335 5.33618 32.5941 5.33311Z" fill="black"/>
<path d="M77.8782 19.9998C76.5636 20.0029 75.2615 19.7454 74.0476 19.2424C72.8337 18.7395 71.7324 18.001 70.8074 17.0699C69.8753 16.1424 69.1364 15.0401 68.6335 13.8267C68.1306 12.6133 67.8736 11.3127 67.8771 9.99979C67.8734 8.68695 68.1303 7.38639 68.633 6.17296C69.1358 4.95952 69.8744 3.85725 70.8064 2.92965C71.7316 1.99844 72.8335 1.25986 74.0476 0.756888C75.2617 0.253913 76.5641 -0.00345321 77.8789 -0.000205068C79.1935 -0.00351048 80.4957 0.253819 81.7096 0.756802C82.9235 1.25979 84.0249 1.99841 84.9498 2.92965C85.8821 3.85708 86.621 4.95924 87.1239 6.1727C87.6267 7.38616 87.8838 8.68688 87.8799 9.99979C87.8839 11.3127 87.627 12.6133 87.1242 13.8268C86.6214 15.0403 85.8825 16.1425 84.9503 17.0699C84.0252 18.0012 82.9234 18.7399 81.7093 19.2429C80.4951 19.7459 79.1928 20.0031 77.878 19.9998H77.8782ZM77.8782 5.33311C76.6388 5.33636 75.4513 5.82955 74.5763 6.70441C73.7012 7.57927 73.21 8.76439 73.2104 9.99979C73.2098 11.2353 73.701 12.4205 74.5761 13.2954C75.4512 14.1703 76.6388 14.6634 77.8782 14.6665C79.1175 14.6634 80.305 14.1703 81.1801 13.2954C82.0551 12.4204 82.5461 11.2352 82.5454 9.99979C82.5463 8.76431 82.0553 7.57894 81.1802 6.70398C80.3052 5.82903 79.1176 5.33599 77.8782 5.33311Z" fill="black"/>
<path d="M50.62 9.99991L65.2882 -9.15527e-05V19.9999L50.62 9.99991Z" fill="black"/>
<path d="M50.4648 0.144196H45.1848V19.8549H50.4648V0.144196Z" fill="black"/>
</g>
<defs>
<clipPath id="clip0">
<rect width="88" height="20" fill="white"/>
</clipPath>
</defs>
</svg>
