<svg width="77" height="27" viewBox="0 0 77 27" fill="none" xmlns="http://www.w3.org/2000/svg">
<circle cx="9.5" cy="13.5" r="9.5" fill="#F22C2C"/>
<path d="M30.1833 22V5.32028H37.5788C39.0655 5.32028 40.1957 5.47198 40.9694 5.77539C41.7431 6.07121 42.3612 6.59837 42.8239 7.35689C43.2866 8.1154 43.518 8.95356 43.518 9.87136C43.518 11.0546 43.1349 12.0521 42.3688 12.8637C41.6027 13.6753 40.4194 14.1911 38.819 14.4111C39.403 14.6917 39.8468 14.9686 40.1502 15.2416C40.7949 15.8333 41.4055 16.5728 41.982 17.4603L44.8833 22H42.1071L39.8999 18.5298C39.2551 17.5286 38.7242 16.7625 38.307 16.2315C37.8898 15.7005 37.5143 15.3289 37.1806 15.1165C36.8544 14.9041 36.5207 14.7562 36.1794 14.6728C35.929 14.6197 35.5194 14.5931 34.9506 14.5931H32.3906V22H30.1833ZM32.3906 12.6817H37.1351C38.1439 12.6817 38.9328 12.5793 39.5016 12.3745C40.0705 12.1621 40.5029 11.8283 40.7987 11.3732C41.0945 10.9105 41.2424 10.4099 41.2424 9.87136C41.2424 9.08251 40.9542 8.43398 40.3777 7.92577C39.8088 7.41757 38.9062 7.16347 37.6698 7.16347H32.3906V12.6817ZM46.1016 22V5.32028H58.162V7.28862H48.3089V12.3972H57.5362V14.3542H48.3089V20.0317H58.5488V22H46.1016ZM72.5671 16.1519L74.7744 16.7094C74.3117 18.5222 73.4773 19.9065 72.2713 20.8622C71.0728 21.8104 69.6051 22.2844 67.8681 22.2844C66.0704 22.2844 64.6065 21.9204 63.4763 21.1922C62.3537 20.4564 61.4966 19.3945 60.9049 18.0064C60.3209 16.6183 60.0289 15.1279 60.0289 13.535C60.0289 11.798 60.3588 10.2848 61.0187 8.99528C61.6862 7.69822 62.6306 6.71594 63.8518 6.04845C65.0806 5.37337 66.4307 5.03584 67.9022 5.03584C69.571 5.03584 70.9742 5.4606 72.112 6.31014C73.2497 7.15967 74.0424 8.35433 74.4899 9.89412L72.3168 10.4061C71.9299 9.19249 71.3686 8.30882 70.6329 7.75511C69.8971 7.20139 68.9717 6.92454 67.8567 6.92454C66.5748 6.92454 65.5015 7.23173 64.6368 7.84613C63.7797 8.46053 63.1767 9.28731 62.8278 10.3265C62.4789 11.358 62.3044 12.4238 62.3044 13.5236C62.3044 14.942 62.5092 16.1822 62.9188 17.2441C63.336 18.2985 63.9807 19.0873 64.853 19.6107C65.7253 20.1341 66.6696 20.3957 67.686 20.3957C68.9224 20.3957 69.9692 20.0392 70.8263 19.3262C71.6834 18.6132 72.2637 17.5551 72.5671 16.1519Z" fill="#F22C2C"/>
</svg>
